<svg xmlns="http://www.w3.org/2000/svg" xmlns:xlink="http://www.w3.org/1999/xlink" width="16" height="16" viewBox="0 0 375 374.999991" preserveAspectRatio="xMidYMid meet" version="1.0"><path fill="#000000" d="M 174.75 76.5 C 155.445312 79.640625 142.695312 91 141.300781 106.300781 C 139.953125 121.066406 147.050781 132.515625 162.019531 139.726562 C 165.929688 141.609375 171.824219 144.015625 175.125 145.078125 C 190.105469 149.894531 197.804688 152.484375 199.988281 153.453125 C 201.289062 154.027344 202.574219 154.5 202.847656 154.5 C 204.246094 154.5 216.3125 160.828125 219.386719 163.175781 C 224.25 166.886719 226.105469 169.117188 228.742188 174.433594 C 230.753906 178.5 231 179.734375 231 185.847656 C 231 192.613281 230.664062 193.992188 227.328125 200.851562 C 224.433594 206.8125 215.230469 213.699219 209.355469 214.300781 C 207.890625 214.449219 206.304688 214.890625 205.839844 215.28125 C 205.371094 215.667969 204.765625 215.765625 204.492188 215.492188 C 204.222656 215.222656 204 215.351562 204 215.785156 C 204 216.214844 205.03125 216.996094 206.292969 217.519531 C 211.117188 219.515625 223 214.933594 229.878906 208.429688 C 237.308594 201.402344 240.769531 193.621094 241.1875 183 C 241.726562 169.296875 236.996094 159.875 225.75 152.257812 C 221.785156 149.570312 216.445312 146.609375 214.875 146.230469 C 213.890625 145.992188 210.675781 144.734375 209.25 144.035156 C 208.632812 143.730469 205.59375 142.726562 202.5 141.800781 C 199.40625 140.875 195.1875 139.484375 193.125 138.710938 C 190.054688 137.558594 178.058594 133.398438 175.125 132.472656 C 169.199219 130.597656 159.414062 124.320312 156.664062 120.628906 C 151.816406 114.128906 151.242188 112.511719 151.226562 105.375 C 151.214844 99.363281 151.4375 98.242188 153.269531 95.113281 C 157.707031 87.519531 165.464844 82.640625 176.464844 80.523438 C 193.832031 77.179688 211.039062 81.175781 220.5 90.753906 C 224.546875 94.851562 230.109375 104.652344 231.339844 109.863281 C 231.792969 111.78125 231.972656 111.917969 232.589844 110.8125 C 233.0625 109.96875 233.042969 109.011719 232.53125 108.054688 C 232.007812 107.082031 232 106.433594 232.496094 106.125 C 233.621094 105.433594 233.457031 91.285156 232.3125 89.914062 C 229.050781 86 219.375 81.097656 209.25 78.222656 C 204.035156 76.742188 200.691406 76.359375 190.875 76.121094 C 184.273438 75.960938 177.019531 76.128906 174.75 76.5 M 231.546875 103.203125 C 231.246094 103.503906 231 104.265625 231 104.898438 C 231 105.742188 231.222656 105.828125 231.835938 105.214844 C 232.292969 104.757812 232.539062 103.992188 232.382812 103.519531 C 232.222656 103.042969 231.847656 102.902344 231.546875 103.203125 M 173.71875 150.84375 C 173.117188 153.84375 173.101562 200.824219 173.699219 203.816406 C 174.085938 205.730469 174.71875 206.253906 177.910156 207.285156 C 179.980469 207.953125 181.976562 208.5 182.34375 208.5 C 182.734375 208.5 182.933594 196.433594 182.820312 179.925781 L 182.625 151.347656 L 178.875 149.925781 C 176.8125 149.140625 174.914062 148.5 174.65625 148.5 C 174.398438 148.5 173.976562 149.554688 173.71875 150.84375 M 162.601562 154.867188 C 153.953125 157.894531 147.722656 163.25 143.40625 171.375 C 141.535156 174.894531 141.414062 175.75 141.394531 185.25 C 141.375 194.90625 141.476562 195.574219 143.519531 199.675781 C 146.402344 205.453125 150.347656 209.777344 156.503906 213.902344 C 163.550781 218.625 166.675781 219.933594 188.625 227.355469 C 216.136719 236.664062 222.738281 240.183594 228.246094 248.480469 C 232.082031 254.257812 233.554688 261.910156 232.140625 268.679688 C 228.015625 288.390625 204.898438 299.210938 177.480469 294.261719 C 169.972656 292.90625 160.003906 288.765625 155.316406 285.050781 C 149.449219 280.40625 142.832031 269.734375 139.820312 260.0625 C 139.082031 257.691406 138.199219 255.75 137.863281 255.75 C 137.527344 255.75 137.25 261.488281 137.25 268.5 L 137.25 281.253906 L 141.9375 284.707031 C 160.503906 298.390625 191.265625 303.199219 213.359375 295.878906 C 232.507812 289.53125 242.738281 277.375 243.339844 260.25 C 243.796875 247.40625 238.75 237.933594 227.476562 230.457031 C 223.210938 227.625 210.105469 221.933594 202.875 219.769531 C 201.226562 219.273438 198.8125 218.394531 197.511719 217.808594 C 196.210938 217.226562 194.820312 216.75 194.425781 216.75 C 194.027344 216.75 192.050781 216.097656 190.039062 215.300781 C 188.023438 214.5 182.683594 212.414062 178.171875 210.664062 C 159.335938 203.347656 150.414062 193.539062 150.578125 180.332031 C 150.699219 170.5 156.207031 162.953125 166.984375 157.855469 C 169.835938 156.507812 171 155.527344 171 154.476562 C 171 152.53125 169.027344 152.621094 162.601562 154.867188 M 174.925781 185.25 C 174.925781 186.695312 175.078125 187.285156 175.265625 186.5625 C 175.457031 185.839844 175.457031 184.660156 175.265625 183.9375 C 175.078125 183.214844 174.925781 183.804688 174.925781 185.25 M 173.609375 253.6875 L 173.625 281.625 L 183 282.070312 L 183 255.410156 C 183 240.746094 182.910156 228.75 182.800781 228.75 C 182.691406 228.75 180.757812 228.074219 178.5 227.25 C 176.242188 226.425781 174.214844 225.75 173.992188 225.75 C 173.773438 225.75 173.597656 238.320312 173.609375 253.6875 " fill-opacity="1" fill-rule="evenodd"/><path fill="#040404" d="M 231.546875 103.203125 C 231.246094 103.503906 231 104.265625 231 104.898438 C 231 105.742188 231.222656 105.828125 231.835938 105.214844 C 232.292969 104.757812 232.539062 103.992188 232.382812 103.519531 C 232.222656 103.042969 231.847656 102.902344 231.546875 103.203125 M 232.273438 111.292969 C 231.964844 112.074219 231.890625 112.890625 232.105469 113.109375 C 232.792969 113.792969 233.394531 112.671875 233.105469 111.246094 C 232.84375 109.941406 232.804688 109.941406 232.273438 111.292969 M 174.925781 185.25 C 174.925781 186.695312 175.078125 187.285156 175.265625 186.5625 C 175.457031 185.839844 175.457031 184.660156 175.265625 183.9375 C 175.078125 183.214844 174.925781 183.804688 174.925781 185.25 M 173.464844 234.375 C 173.46875 236.4375 173.617188 237.191406 173.789062 236.050781 C 173.960938 234.910156 173.957031 233.222656 173.777344 232.300781 C 173.601562 231.378906 173.460938 232.3125 173.464844 234.375 M 243.175781 259.5 C 243.175781 260.945312 243.328125 261.535156 243.515625 260.8125 C 243.707031 260.089844 243.707031 258.910156 243.515625 258.1875 C 243.328125 257.464844 243.175781 258.054688 243.175781 259.5 " fill-opacity="1" fill-rule="evenodd"/></svg>
